#!OML:ASF E:/inclinewalkrobotboard/Project1/Captureday1/Session1/subject1.ASF
:FULLY-SPECIFIED
:DEGREES
226
root 0 0 0 2.0807904997747966 1.2251924547864568 -1.0153713532518096
lowerback 10.984469601045035 -0.29672360349155047 -2.2900964112199276
upperback 2.0004059622371466 -0.6965187520290723 1.1016230050561533
thorax -3.9415998167805357 -0.25499812757558515 2.420918513293056
lowerneck -6.580161146110153 -1.969259761964515 -0.17475950412986352
upperneck 24.520530108622285 -3.054850128082471 2.3772329293327794
head 9.25410660571436 -1.277383284291529 0.5881173613586939
rclavicle 5.197181963316448E-15 2.6356595937208155E-15
rhumerus -8.321119996940796 13.784342969629392 -50.82736859252324
rradius 106.55119167638696
rwrist -42.540392209078334
rhand -4.095376834539033 -54.65267757596472
rfingers 7.125020000000007
rthumb 21.67217144635979 -83.26435790427752
lclavicle 1.8247062664601866E-15 3.824708381479801E-15
lhumerus -44.48481232205366 -7.521018116833725 85.38599580631337
lradius 61.86206761639956
lwrist 7.192321485217612
lhand -11.690134166659949 -28.961189373342574
lfingers 7.125020000000018
lthumb 14.363357112537566 0.5980751136062317
rfemur 1.2198175628788261 -0.5328118712059782 -2.9990556241188795
rtibia -4.626370831836891
rfoot 0.9143213586369159 0.6554320971781693
rtoes -0.7459980094206815
lfemur 0.872577476976427 -6.4503398823533065 -10.19437327058693
ltibia 22.310752523248784
lfoot -28.192925211737965 14.332210043881549
ltoes -60.02833638940046
227
root 0 0 0 2.0802185971728138 1.2248773047370696 -1.0149733798298497
lowerback 10.983428225729956 -0.2968729123713326 -2.2903210166566836
upperback 1.999655560373684 -0.6967364459940615 1.1017549108876248
thorax -3.941833498422425 -0.25509028482172436 2.421237479078428
lowerneck -6.581277810128042 -1.9690965159609637 -0.1748727058849764
upperneck 24.522687389047796 -3.0546377677898704 2.3771012203856987
head 9.255002004071871 -1.277268236291389 0.5880771795111182
rclavicle 5.19860080398499E-15 2.6346385342611253E-15
rhumerus -8.324323224092929 13.779841320961111 -50.82814128728554
rradius 106.54372511017334
rwrist -42.54099246732518
rhand -4.094423092335488 -54.654214566957705
rfingers 7.125020000000007
rthumb 21.673080316819757 -83.26580161951965
lclavicle 1.8253921783430634E-15 3.823870106448033E-15
lhumerus -44.484800453354374 -7.52091854213513 85.3859989984976
lradius 61.86188166998093
lwrist 7.192260212321234
lhand -11.690163955480326 -28.96104138373532
lfingers 7.125020000000018
lthumb 14.363324837088172 0.598214535385349
rfemur 1.219640012484029 -0.5328194886516058 -2.998845449524582
rtibia -4.625656543457662
rfoot 0.914413500996683 0.6554092933133675
rtoes -0.745819917466956
lfemur 0.8724985751330285 -6.449815139254055 -10.194845803632802
ltibia 22.31145220409018
lfoot -28.191945436238157 14.331221803802576
ltoes -60.02620341072728
228
root 0 0 0 2.0798343536397947 1.2246725485353114 -1.0147154492244765
lowerback 10.982596850899023 -0.29696319160269125 -2.2904592361740974
upperback 1.9991327566221604 -0.6968676816500234 1.1018475248533768
thorax -3.941935862306969 -0.25514418600854327 2.421449552702487
lowerneck -6.582022942028527 -1.9689892661753015 -0.17497247750254163
upperneck 24.524407887988517 -3.0545098279363785 2.377063647748527
head 9.25569251191945 -1.2771920345096444 0.5880676010252177
rclavicle 5.199424041847609E-15 2.634225787166246E-15
rhumerus -8.327076313991347 13.776830481783772 -50.829173839676784
rradius 106.53800369232573
rwrist -42.541101216622835
rhand -4.093774554971759 -54.65513874224745
rfingers 7.125020000000007
rthumb 21.673697968910748 -83.2666602588881
lclavicle 1.825649710426576E-15 3.823689217722565E-15
lhumerus -44.48467838271596 -7.52094358121819 85.38604460177595
lradius 61.86179208830264
lwrist 7.192312000701593
lhand -11.690238978314902 -28.960816349345066
lfingers 7.125020000000018
lthumb 14.363248376557658 0.5984319552882944
rfemur 1.2194273358986605 -0.5327820798423772 -2.9985185782143073
rtibia -4.624951615421054
rfoot 0.9143841901689918 0.6553380050129278
rtoes -0.7456888566377822
lfemur 0.8724354871879649 -6.4494421827003166 -10.195064835765848
ltibia 22.311874816429714
lfoot -28.19142978303426 14.330670923519751
ltoes -60.025247862983264
229
root 0 0 0 2.0796002722534 1.2245521386359406 -1.0145605068704158
lowerback 10.981977922206891 -0.2970131656176732 -2.2905353618281064
upperback 1.9987912908731453 -0.6969398217743479 1.1019084357703188
thorax -3.9419590677375598 -0.25517257321845943 2.4215800956736877
lowerneck -6.582494756793703 -1.9689226897421088 -0.17505358355704437
upperneck 24.525719044031693 -3.054439241811931 2.3770728466460147
head 9.256203306559376 -1.2771443059813579 0.5880727592552772
rclavicle 5.1999556881909686E-15 2.63407721658185E-15
rhumerus -8.329269410741123 13.774940874501983 -50.830219809321086
rradius 106.53386048430937
rwrist -42.5409397903384
rhand -4.093359756513653 -54.655644340932135
rfingers 7.125020000000007
rthumb 21.674092872785593 -83.26712363751034
lclavicle 1.825823136057422E-15 3.8237257662122444E-15
lhumerus -44.48455167078616 -7.520994191215354 85.38608695663895
lradius 61.86174237824376
lwrist 7.192385763581715
lhand -11.690314999559263 -28.960603965380606
lfingers 7.125020000000018
lthumb 14.363171803327893 0.5986388565352598
rfemur 1.2192522938456891 -0.5327370456952676 -2.998226231066761
rtibia -4.624416633560951
rfoot 0.9143176254080263 0.6552659844269795
rtoes -0.745605996276139
lfemur 0.8724233343327183 -6.449230588532002 -10.195160541114083
ltibia 22.3120894252268
lfoot -28.191200329769327 14.330402488131243
ltoes -60.024870522400505
230
root 0 0 0 2.0794674621763405 1.224486882095881 -1.0144726531703703
lowerback 10.981538874701048 -0.29703852046562973 -2.2905726342240875
upperback 1.9985807255978698 -0.696975913813582 1.1019469986565247
thorax -3.941940345692826 -0.25518581185315725 2.421656160815911
lowerneck -6.582781126503514 -1.968883134024093 -0.17511622784331982
upperneck 24.526685623999974 -3.0544036922766047 2.3771004606153388
head 9.256569874784578 -1.2771155913745074 0.5880833811758082
rclavicle 5.200308519653918E-15 2.634022691654243E-15
rhumerus -8.330925978577069 13.773818422763608 -50.831145074635884
rradius 106.53097482845743
rwrist -42.54067121273444
rhand -4.093105862509949 -54.65588992736478
rfingers 7.125020000000007
rthumb 21.6743345862089 -83.26734364964864
lclavicle 1.825972482840234E-15 3.823793679743434E-15
lhumerus -44.48445393277213 -7.521035101876732 85.38611676373758
lradius 61.86170750865084
lwrist 7.192445548615151
lhand -11.690374896518977 -28.96043841870822
lfingers 7.125020000000018
lthumb 14.36311185400316 0.5988006723065666
rfemur 1.219130051825096 -0.5326996775406427 -2.998012548533554
rtibia -4.624062139059962
rfoot 0.9142535919891985 0.6552101854502674
rtoes -0.7455586976936421
lfemur 0.8724537598051993 -6.449138804629143 -10.19520392716061
ltibia 22.3121738725999
lfoot -28.191124484176015 14.330293558035084
ltoes -60.02473650086628
